<svg width="18" height="16" viewBox="0 0 18 16" fill="none" xmlns="http://www.w3.org/2000/svg">
<path d="M9.18755 14.667C8.2891 14.667 7.43029 14.4937 6.61111 14.147C5.82717 13.8092 5.12911 13.3314 4.51693 12.7137C3.90475 12.0959 3.4313 11.3914 3.09659 10.6003C2.75306 9.77366 2.5813 8.90699 2.5813 8.00033C2.5813 7.09366 2.75306 6.22699 3.09659 5.40033C3.4313 4.60921 3.90475 3.90477 4.51693 3.28699C5.12911 2.66922 5.82717 2.19144 6.61111 1.85366C7.43029 1.50699 8.2891 1.33366 9.18755 1.33366C10.086 1.33366 10.9448 1.50699 11.764 1.85366C12.5479 2.19144 13.246 2.66922 13.8582 3.28699C14.4703 3.90477 14.9438 4.60921 15.2785 5.40033C15.622 6.22699 15.7938 7.09366 15.7938 8.00033C15.7938 8.90699 15.622 9.77366 15.2785 10.6003C14.9438 11.3914 14.4703 12.0959 13.8582 12.7137C13.246 13.3314 12.5479 13.8092 11.764 14.147C10.9448 14.4937 10.086 14.667 9.18755 14.667ZM7.68132 13.107C7.0207 11.7025 6.64634 10.2225 6.55826 8.66699H3.94219C4.03027 9.36033 4.24387 10.0092 4.58299 10.6137C4.92211 11.2181 5.35813 11.7359 5.89103 12.167C6.42393 12.5981 7.0207 12.9114 7.68132 13.107ZM7.89272 8.66699C7.98961 10.267 8.42122 11.7692 9.18755 13.1737C9.95387 11.7692 10.3855 10.267 10.4824 8.66699H7.89272ZM14.4329 8.66699H11.8168C11.7288 10.2225 11.3588 11.7025 10.707 13.107C11.3588 12.9114 11.9512 12.5981 12.4841 12.167C13.017 11.7359 13.453 11.2181 13.7921 10.6137C14.1312 10.0092 14.3448 9.36033 14.4329 8.66699ZM3.94219 7.33366H6.55826C6.64634 5.7781 7.0207 4.2981 7.68132 2.89366C7.0207 3.08922 6.42393 3.40255 5.89103 3.83366C5.35813 4.26477 4.92211 4.78255 4.58299 5.38699C4.24387 5.99144 4.03027 6.64033 3.94219 7.33366ZM7.89272 7.33366H10.4824C10.3855 5.73366 9.95387 4.23144 9.18755 2.82699C8.42122 4.23144 7.98961 5.73366 7.89272 7.33366ZM10.707 2.89366C11.3588 4.2981 11.7288 5.7781 11.8168 7.33366H14.4329C14.3448 6.64033 14.1312 5.99144 13.7921 5.38699C13.453 4.78255 13.017 4.26477 12.4841 3.83366C11.9512 3.40255 11.3588 3.08922 10.707 2.89366Z" fill="black"/>
</svg>
