<svg width="21" height="21" viewBox="0 0 21 21" fill="none" xmlns="http://www.w3.org/2000/svg">
<path d="M8.17374 2.16634H17.2762C17.5079 2.16634 17.7038 2.2469 17.8638 2.40801C18.0237 2.56912 18.1037 2.76634 18.1037 2.99968V17.9997C18.1037 18.233 18.0237 18.4302 17.8638 18.5913C17.7038 18.7525 17.5079 18.833 17.2762 18.833H4.03624C3.80454 18.833 3.6087 18.7525 3.44872 18.5913C3.28873 18.4302 3.20874 18.233 3.20874 17.9997V7.16634L8.17374 2.16634ZM5.54229 7.16634H8.17374V4.53301L5.54229 7.16634ZM9.82874 3.83301V7.99967C9.82874 8.23301 9.74875 8.43023 9.58877 8.59134C9.42878 8.75245 9.23294 8.83301 9.00124 8.83301H4.86374V17.1663H16.4487V3.83301H9.82874Z" fill="black"/>
</svg>
