<svg width="17" height="16" viewBox="0 0 17 16" fill="none" xmlns="http://www.w3.org/2000/svg">
<path d="M8.42974 14.667C7.53129 14.667 6.67247 14.4937 5.8533 14.147C5.06936 13.8092 4.3713 13.3314 3.75912 12.7137C3.14694 12.0959 2.67349 11.3914 2.33877 10.6003C1.99525 9.77366 1.82349 8.90699 1.82349 8.00033C1.82349 7.09366 1.99525 6.22699 2.33877 5.40033C2.67349 4.60921 3.14694 3.90477 3.75912 3.28699C4.3713 2.66922 5.06936 2.19144 5.8533 1.85366C6.67247 1.50699 7.53129 1.33366 8.42974 1.33366C9.32819 1.33366 10.187 1.50699 11.0062 1.85366C11.7901 2.19144 12.4882 2.66922 13.1004 3.28699C13.7125 3.90477 14.186 4.60921 14.5207 5.40033C14.8642 6.22699 15.036 7.09366 15.036 8.00033C15.036 8.90699 14.8642 9.77366 14.5207 10.6003C14.186 11.3914 13.7125 12.0959 13.1004 12.7137C12.4882 13.3314 11.7901 13.8092 11.0062 14.147C10.187 14.4937 9.32819 14.667 8.42974 14.667ZM8.42974 13.3337C9.38984 13.3337 10.2795 13.0892 11.0987 12.6003C11.8914 12.1292 12.5212 11.4937 12.988 10.6937C13.4725 9.86699 13.7147 8.96921 13.7147 8.00033C13.7147 7.03144 13.4725 6.13366 12.988 5.30699C12.5212 4.50699 11.8914 3.87144 11.0987 3.40033C10.2795 2.91144 9.38984 2.66699 8.42974 2.66699C7.46963 2.66699 6.57999 2.91144 5.76081 3.40033C4.96806 3.87144 4.33827 4.50699 3.87142 5.30699C3.38697 6.13366 3.14474 7.03144 3.14474 8.00033C3.14474 8.96921 3.38697 9.86699 3.87142 10.6937C4.33827 11.4937 4.96806 12.1292 5.76081 12.6003C6.57999 13.0892 7.46963 13.3337 8.42974 13.3337ZM7.51807 5.61366L10.7419 7.77366C10.8036 7.8181 10.841 7.87588 10.8542 7.94699C10.8674 8.0181 10.8564 8.08477 10.8212 8.14699C10.7948 8.17366 10.7683 8.20033 10.7419 8.22699L7.51807 10.387C7.45642 10.4314 7.39035 10.447 7.31989 10.4337C7.24942 10.4203 7.19217 10.3825 7.14812 10.3203C7.1217 10.2759 7.10849 10.227 7.10849 10.1737V5.82699C7.10849 5.75588 7.13491 5.69366 7.18776 5.64033C7.24061 5.58699 7.30227 5.56033 7.37274 5.56033C7.42559 5.56033 7.47403 5.5781 7.51807 5.61366Z" fill="black"/>
</svg>
