<svg width="17" height="16" viewBox="0 0 17 16" fill="none" xmlns="http://www.w3.org/2000/svg">
<path d="M10.5479 6.57339C10.2572 6.28894 10.0855 5.94227 10.0326 5.53339L9.76837 3.48005L7.95825 4.46672C7.60592 4.66227 7.22716 4.7245 6.82198 4.65339L4.80047 4.26672L5.18363 6.30672C5.25409 6.71561 5.19244 7.09783 4.99865 7.45339L4.02093 9.28005L6.05565 9.54672C6.46084 9.60005 6.80436 9.77339 7.08623 10.0667L8.49997 11.5734L9.37199 9.70672C9.54816 9.33339 9.82122 9.05783 10.1912 8.88005L12.0409 8.00005L10.5479 6.57339ZM10.5743 10.2801L9.10774 13.3734C9.0637 13.4801 8.98883 13.5512 8.88313 13.5867C8.77743 13.6223 8.67613 13.6178 8.57924 13.5734C8.5352 13.5467 8.49556 13.5156 8.46033 13.4801L6.12172 10.9867C6.06006 10.9156 5.98078 10.8756 5.88389 10.8667L2.5147 10.4267C2.409 10.4089 2.32092 10.3556 2.25045 10.2667C2.17999 10.1778 2.15356 10.0801 2.17118 9.97339C2.17999 9.92005 2.1932 9.87561 2.21082 9.84005L3.83595 6.81339C3.8888 6.73339 3.90642 6.64894 3.8888 6.56005L3.2546 3.17339C3.23699 3.06672 3.25901 2.96894 3.32067 2.88005C3.38232 2.79116 3.466 2.73339 3.5717 2.70672C3.62455 2.69783 3.673 2.69783 3.71704 2.70672L7.07302 3.34672C7.1611 3.3645 7.24478 3.34672 7.32405 3.29339L10.3233 1.65339C10.4114 1.60005 10.5083 1.58894 10.614 1.62005C10.7197 1.65116 10.7989 1.71561 10.8518 1.81339C10.8782 1.85783 10.8958 1.90672 10.9046 1.96005L11.3407 5.36005C11.3495 5.45783 11.3891 5.53783 11.4596 5.60005L13.9303 7.96005C14.0096 8.04005 14.0514 8.13339 14.0558 8.24005C14.0602 8.34672 14.0228 8.4445 13.9435 8.53339C13.9083 8.56894 13.8686 8.59561 13.8246 8.61339L10.7593 10.0934C10.6712 10.1289 10.6096 10.1912 10.5743 10.2801ZM11.0896 11.5601L12.0277 10.6134L14.8288 13.4534L13.9039 14.3867L11.0896 11.5601Z" fill="white"/>
</svg>
