<svg width="22" height="21" viewBox="0 0 22 21" fill="none" xmlns="http://www.w3.org/2000/svg">
<path d="M3.88072 18C3.64902 18 3.45318 17.9194 3.2932 17.7583C3.13321 17.5972 3.05322 17.4 3.05322 17.1667V3.83333C3.05322 3.6 3.13321 3.40278 3.2932 3.24167C3.45318 3.08055 3.64902 3 3.88072 3H18.7757C19.0074 3 19.2033 3.08055 19.3632 3.24167C19.5232 3.40278 19.6032 3.6 19.6032 3.83333V17.1667C19.6032 17.4 19.5232 17.5972 19.3632 17.7583C19.2033 17.9194 19.0074 18 18.7757 18H3.88072ZM17.9482 13V4.66667H4.70822V16.3333L12.9832 8L17.9482 13ZM17.9482 15.35L12.9832 10.35L7.04177 16.3333H17.9482V15.35ZM8.01822 9.66667C7.72032 9.66667 7.44449 9.59167 7.19072 9.44167C6.93696 9.29167 6.7356 9.08889 6.58665 8.83333C6.4377 8.57778 6.36322 8.3 6.36322 8C6.36322 7.7 6.4377 7.42222 6.58665 7.16667C6.7356 6.91111 6.93696 6.70833 7.19072 6.55833C7.44449 6.40833 7.72032 6.33333 8.01822 6.33333C8.31612 6.33333 8.59196 6.40833 8.84572 6.55833C9.09949 6.70833 9.30085 6.91111 9.4498 7.16667C9.59875 7.42222 9.67322 7.7 9.67322 8C9.67322 8.3 9.59875 8.57778 9.4498 8.83333C9.30085 9.08889 9.09949 9.29167 8.84572 9.44167C8.59196 9.59167 8.31612 9.66667 8.01822 9.66667Z" fill="black"/>
</svg>
