<svg width="26" height="24" viewBox="0 0 26 24" fill="none" xmlns="http://www.w3.org/2000/svg">
<path d="M13.0002 4.28023C13.7687 3.5869 14.6498 3.13023 15.6435 2.91023C16.6373 2.69023 17.6178 2.71357 18.585 2.98023C19.592 3.26023 20.4632 3.77023 21.1986 4.51023C21.934 5.25023 22.4408 6.1269 22.719 7.14023C22.984 8.11357 23.0072 9.0969 22.7886 10.0902C22.57 11.0836 22.1162 11.9736 21.4272 12.7602L13.0002 21.2402L4.57316 12.7602C3.88416 11.9736 3.43035 11.0836 3.21172 10.0902C2.9931 9.0969 3.01628 8.11357 3.28128 7.14023C3.55953 6.1269 4.06966 5.25023 4.81166 4.51023C5.55366 3.77023 6.42153 3.26023 7.41528 2.98023C8.38253 2.71357 9.36303 2.69023 10.3568 2.91023C11.3505 3.13023 12.2317 3.5869 13.0002 4.28023ZM19.7775 5.92023C19.2873 5.4269 18.7175 5.09023 18.0683 4.91023C17.419 4.73023 16.7632 4.71357 16.1007 4.86023C15.4382 5.0069 14.8485 5.31357 14.3318 5.78023L13.0002 6.98023L11.6685 5.78023C11.165 5.31357 10.5787 5.0069 9.9096 4.86023C9.24047 4.71357 8.58128 4.73023 7.93203 4.91023C7.28278 5.09023 6.71303 5.4269 6.22278 5.92023C5.73253 6.41357 5.39466 6.9869 5.20916 7.64023C5.02366 8.29357 5.00047 8.95023 5.1396 9.61023C5.27872 10.2702 5.57353 10.8602 6.02403 11.3802L13.0002 18.4202L19.9763 11.3802C20.4268 10.8602 20.7216 10.2702 20.8607 9.61023C20.9998 8.95023 20.9767 8.29357 20.7912 7.64023C20.6057 6.9869 20.2678 6.41357 19.7775 5.92023Z" fill="#1A1A1A"/>
</svg>
