<svg width="26" height="24" viewBox="0 0 26 24" fill="none" xmlns="http://www.w3.org/2000/svg">
<path d="M13 11C13.901 11 14.7324 11.2233 15.4943 11.67C16.2562 12.1167 16.8591 12.7233 17.3029 13.49C17.7468 14.2567 17.9687 15.0933 17.9687 16V22H15.9812V16C15.9812 15.48 15.8554 14.9967 15.6036 14.55C15.3519 14.1033 15.014 13.7433 14.59 13.47C14.166 13.1967 13.6956 13.04 13.1789 13H13C12.4832 13 12.0029 13.1267 11.5591 13.38C11.1152 13.6333 10.7574 13.9733 10.4858 14.4C10.2142 14.8267 10.0585 15.3 10.0187 15.82V22H8.03125V16C8.03125 15.0933 8.25319 14.2567 8.69706 13.49C9.14094 12.7233 9.74381 12.1167 10.5057 11.67C11.2676 11.2233 12.099 11 13 11ZM6.54062 14C6.81887 14 7.0905 14.0333 7.3555 14.1C7.18325 14.6067 7.07725 15.1267 7.0375 15.66V16.08C6.91825 16.04 6.799 16.0133 6.67975 16H6.54062C6.15637 16 5.82181 16.13 5.53694 16.39C5.25206 16.65 5.08975 16.9733 5.05 17.36V17.5V22H3.0625V17.5C3.0625 16.86 3.21819 16.2733 3.52956 15.74C3.84094 15.2067 4.26162 14.7833 4.79162 14.47C5.32162 14.1567 5.90462 14 6.54062 14ZM19.4594 14C20.0954 14 20.6784 14.1567 21.2084 14.47C21.7384 14.7833 22.1591 15.2067 22.4704 15.74C22.7818 16.2733 22.9375 16.86 22.9375 17.5V22H20.95V17.5C20.95 17.1133 20.8208 16.7767 20.5624 16.49C20.3041 16.2033 19.9827 16.04 19.5985 16H19.4594C19.2871 16 19.1215 16.0267 18.9625 16.08V16C18.9625 15.3467 18.8631 14.7133 18.6644 14.1C18.9161 14.0333 19.1811 14 19.4594 14ZM6.54062 8C6.99112 8 7.40519 8.11333 7.78281 8.34C8.16044 8.56667 8.46187 8.87 8.68712 9.25C8.91237 9.63 9.025 10.0467 9.025 10.5C9.025 10.9533 8.91237 11.37 8.68712 11.75C8.46187 12.13 8.16044 12.4333 7.78281 12.66C7.40519 12.8867 6.99112 13 6.54062 13C6.09012 13 5.67606 12.8867 5.29844 12.66C4.92081 12.4333 4.61937 12.13 4.39412 11.75C4.16887 11.37 4.05625 10.9533 4.05625 10.5C4.05625 10.0467 4.16887 9.63 4.39412 9.25C4.61937 8.87 4.92081 8.56667 5.29844 8.34C5.67606 8.11333 6.09012 8 6.54062 8ZM19.4594 8C19.9099 8 20.3239 8.11333 20.7016 8.34C21.0792 8.56667 21.3806 8.87 21.6059 9.25C21.8311 9.63 21.9437 10.0467 21.9437 10.5C21.9437 10.9533 21.8311 11.37 21.6059 11.75C21.3806 12.13 21.0792 12.4333 20.7016 12.66C20.3239 12.8867 19.9099 13 19.4594 13C19.0089 13 18.5948 12.8867 18.2172 12.66C17.8396 12.4333 17.5381 12.13 17.3129 11.75C17.0876 11.37 16.975 10.9533 16.975 10.5C16.975 10.0467 17.0876 9.63 17.3129 9.25C17.5381 8.87 17.8396 8.56667 18.2172 8.34C18.5948 8.11333 19.0089 8 19.4594 8ZM6.54062 10C6.40812 10 6.29219 10.05 6.19281 10.15C6.09344 10.25 6.04375 10.3667 6.04375 10.5C6.04375 10.6333 6.09344 10.75 6.19281 10.85C6.29219 10.95 6.40812 11 6.54062 11C6.67312 11 6.78906 10.95 6.88844 10.85C6.98781 10.75 7.0375 10.6333 7.0375 10.5C7.0375 10.3667 6.98781 10.25 6.88844 10.15C6.78906 10.05 6.67312 10 6.54062 10ZM19.4594 10C19.3269 10 19.2109 10.05 19.1116 10.15C19.0122 10.25 18.9625 10.3667 18.9625 10.5C18.9625 10.6333 19.0122 10.75 19.1116 10.85C19.2109 10.95 19.3269 11 19.4594 11C19.5919 11 19.7078 10.95 19.8072 10.85C19.9066 10.75 19.9562 10.6333 19.9562 10.5C19.9562 10.3667 19.9066 10.25 19.8072 10.15C19.7078 10.05 19.5919 10 19.4594 10ZM13 2C13.7155 2 14.378 2.18 14.9875 2.54C15.597 2.9 16.0806 3.38667 16.4384 4C16.7961 4.61333 16.975 5.28 16.975 6C16.975 6.72 16.7961 7.38667 16.4384 8C16.0806 8.61333 15.597 9.1 14.9875 9.46C14.378 9.82 13.7155 10 13 10C12.2845 10 11.622 9.82 11.0125 9.46C10.403 9.1 9.91937 8.61333 9.56163 8C9.20387 7.38667 9.025 6.72 9.025 6C9.025 5.28 9.20387 4.61333 9.56163 4C9.91937 3.38667 10.403 2.9 11.0125 2.54C11.622 2.18 12.2845 2 13 2ZM13 4C12.6423 4 12.311 4.09 12.0062 4.27C11.7015 4.45 11.4597 4.69333 11.2808 5C11.1019 5.30667 11.0125 5.64 11.0125 6C11.0125 6.36 11.1019 6.69333 11.2808 7C11.4597 7.30667 11.7015 7.55 12.0062 7.73C12.311 7.91 12.6423 8 13 8C13.3577 8 13.689 7.91 13.9937 7.73C14.2985 7.55 14.5403 7.30667 14.7192 7C14.8981 6.69333 14.9875 6.36 14.9875 6C14.9875 5.64 14.8981 5.30667 14.7192 5C14.5403 4.69333 14.2985 4.45 13.9937 4.27C13.689 4.09 13.3577 4 13 4Z" fill="#1A1A1A"/>
</svg>
