<svg width="26" height="24" viewBox="0 0 26 24" fill="none" xmlns="http://www.w3.org/2000/svg">
<path d="M10.9924 17.5H12.0061V12.5H13.9936V17.5H15.0072C15.0734 16.9267 15.2589 16.3667 15.5637 15.82C15.8287 15.3267 16.2196 14.7933 16.7363 14.22L17.0146 13.92C17.3988 13.52 17.6108 13.3 17.6506 13.26C18.0746 12.7267 18.3992 12.14 18.6244 11.5C18.8497 10.86 18.9623 10.1933 18.9623 9.5C18.9623 8.42 18.6907 7.41333 18.1474 6.48C17.6174 5.57333 16.9019 4.85333 16.0009 4.32C15.0734 3.77333 14.0731 3.5 12.9998 3.5C11.9266 3.5 10.9262 3.77333 9.99868 4.32C9.09768 4.85333 8.38218 5.57333 7.85218 6.48C7.30893 7.41333 7.0373 8.42 7.0373 9.5C7.0373 10.1933 7.14993 10.86 7.37518 11.5C7.60043 12.14 7.92505 12.72 8.34905 13.24C8.3888 13.2933 8.6008 13.52 8.98505 13.92L9.2633 14.22C9.78005 14.7933 10.1709 15.3267 10.4359 15.82C10.7407 16.3667 10.9262 16.9267 10.9924 17.5ZM11.0123 19.5V20.5H14.9873V19.5H11.0123ZM6.7988 14.5C6.2423 13.8067 5.81168 13.04 5.50693 12.2C5.20218 11.3333 5.0498 10.4333 5.0498 9.5C5.0498 8.04667 5.41418 6.7 6.14293 5.46C6.84518 4.26 7.79255 3.30667 8.98505 2.6C10.2173 1.86667 11.5556 1.5 12.9998 1.5C14.4441 1.5 15.7823 1.86667 17.0146 2.6C18.2071 3.30667 19.1544 4.26 19.8567 5.46C20.5854 6.7 20.9498 8.04667 20.9498 9.5C20.9498 10.4333 20.7974 11.3333 20.4927 12.2C20.1879 13.04 19.7573 13.8067 19.2008 14.5C19.1081 14.62 18.9226 14.82 18.6443 15.1C18.1276 15.6467 17.7632 16.08 17.5512 16.4C17.1669 16.96 16.9748 17.4933 16.9748 18V20.5C16.9748 20.86 16.8854 21.1933 16.7065 21.5C16.5276 21.8067 16.2858 22.05 15.9811 22.23C15.6763 22.41 15.3451 22.5 14.9873 22.5H11.0123C10.6546 22.5 10.3233 22.41 10.0186 22.23C9.7138 22.05 9.47199 21.8067 9.29312 21.5C9.11424 21.1933 9.0248 20.86 9.0248 20.5V18C9.0248 17.4933 8.83268 16.96 8.44843 16.4C8.23643 16.08 7.87205 15.6467 7.3553 15.1C7.07705 14.82 6.89155 14.62 6.7988 14.5Z" fill="#1A1A1A"/>
</svg>
