<svg width="17" height="17" viewBox="0 0 17 17" fill="none" xmlns="http://www.w3.org/2000/svg">
<path d="M8.43517 6.69999C8.74346 6.37111 9.08698 6.12222 9.46574 5.95333C9.87092 5.76666 10.2981 5.67333 10.7474 5.67333C11.3992 5.66444 12.0047 5.82444 12.5641 6.15333C13.1234 6.48222 13.566 6.92888 13.8919 7.49333C14.2178 8.05777 14.3808 8.66888 14.3808 9.32666V14.3267H13.0595V9.32666C13.0595 8.90888 12.9538 8.52222 12.7424 8.16666C12.531 7.8111 12.2492 7.52666 11.8968 7.31333C11.5445 7.09999 11.1591 6.99333 10.7407 6.99333C10.3224 6.99333 9.93699 7.09999 9.58465 7.31333C9.23232 7.52666 8.95266 7.8111 8.74566 8.16666C8.53866 8.52222 8.43517 8.91333 8.43517 9.33999V14.3267H7.11392V5.99333H8.43517V6.69999ZM3.79758 4.65999C3.52452 4.65999 3.2911 4.56444 3.09732 4.37333C2.90353 4.18222 2.80664 3.94666 2.80664 3.66666C2.80664 3.38666 2.90353 3.1511 3.09732 2.95999C3.2911 2.76888 3.52672 2.67111 3.80418 2.66666C4.08165 2.66222 4.31507 2.75777 4.50445 2.95333C4.69383 3.14888 4.78852 3.38666 4.78852 3.66666C4.78852 3.94666 4.69383 4.18222 4.50445 4.37333C4.31507 4.56444 4.07944 4.65999 3.79758 4.65999ZM3.13695 5.99333H4.4582V14.3267H3.13695V5.99333Z" fill="#9CA3AF"/>
</svg>
