<svg xmlns="http://www.w3.org/2000/svg" width="48" height="48" viewBox="0 0 48 48" fill="none">
<path d="M0 20C0 8.95431 8.9543 0 20 0H28C39.0457 0 48 8.9543 48 20V28C48 39.0457 39.0457 48 28 48H20C8.95431 48 0 39.0457 0 28V20Z" fill="#E5DFD3" fill-opacity="0.3"/>
<path d="M24.6291 22.3333H28.3528L27.9391 24H24.6291V31.5H22.9741V24H19.6641V22.3333H22.9741V20.7667C22.9741 20.0667 23.0072 19.5222 23.0734 19.1333C23.1396 18.8111 23.2499 18.5 23.4044 18.2C23.7023 17.6556 24.1215 17.2389 24.6622 16.95C24.949 16.7833 25.258 16.6722 25.589 16.6167C25.9751 16.5389 26.5158 16.5 27.2109 16.5C27.6412 16.5 28.0163 16.5389 28.3363 16.6167V18.1667H27.2109C26.6813 18.1667 26.2979 18.1833 26.0606 18.2167C25.8234 18.25 25.6165 18.3167 25.44 18.4167C25.1862 18.55 24.9932 18.7389 24.8608 18.9833C24.7725 19.1611 24.7091 19.3694 24.6704 19.6083C24.6318 19.8472 24.6125 20.2333 24.6125 20.7667V22.3333H24.6291Z" fill="#1A1A1A"/>
</svg>