<svg xmlns="http://www.w3.org/2000/svg" width="48" height="48" viewBox="0 0 48 48" fill="none">
<path d="M0 20C0 8.95431 8.9543 0 20 0H28C39.0457 0 48 8.9543 48 20V28C48 39.0457 39.0457 48 28 48H20C8.95431 48 0 39.0457 0 28V20Z" fill="#E5DFD3" fill-opacity="0.3"/>
<path d="M24.0001 21.4997C23.5477 21.4997 23.1312 21.6108 22.7506 21.833C22.3699 22.0552 22.0693 22.358 21.8486 22.7413C21.6279 23.1247 21.5176 23.5441 21.5176 23.9997C21.5176 24.4552 21.6279 24.8747 21.8486 25.258C22.0693 25.6413 22.3699 25.9441 22.7506 26.1663C23.1312 26.3886 23.5477 26.4997 24.0001 26.4997C24.4525 26.4997 24.869 26.3886 25.2496 26.1663C25.6303 25.9441 25.9309 25.6413 26.1516 25.258C26.3723 24.8747 26.4826 24.4552 26.4826 23.9997C26.4826 23.5441 26.3723 23.1247 26.1516 22.7413C25.9309 22.358 25.6303 22.0552 25.2496 21.833C24.869 21.6108 24.4525 21.4997 24.0001 21.4997ZM24.0001 19.833C24.7504 19.833 25.4427 20.0191 26.0771 20.3913C26.7115 20.7636 27.2136 21.2691 27.5832 21.908C27.9528 22.5469 28.1376 23.2441 28.1376 23.9997C28.1376 24.7552 27.9528 25.4525 27.5832 26.0913C27.2136 26.7302 26.7115 27.2358 26.0771 27.608C25.4427 27.9802 24.7504 28.1663 24.0001 28.1663C23.2498 28.1663 22.5575 27.9802 21.9231 27.608C21.2887 27.2358 20.7866 26.7302 20.417 26.0913C20.0474 25.4525 19.8626 24.7552 19.8626 23.9997C19.8626 23.2441 20.0474 22.5469 20.417 21.908C20.7866 21.2691 21.2887 20.7636 21.9231 20.3913C22.5575 20.0191 23.2498 19.833 24.0001 19.833ZM29.3788 19.6163C29.3788 19.9052 29.2768 20.1525 29.0727 20.358C28.8686 20.5636 28.6258 20.6663 28.3445 20.6663C28.0631 20.6663 27.8204 20.5636 27.6163 20.358C27.4122 20.1525 27.3101 19.908 27.3101 19.6247C27.3101 19.3413 27.4122 19.0969 27.6163 18.8913C27.8204 18.6858 28.0631 18.583 28.3445 18.583C28.6258 18.583 28.8686 18.6858 29.0727 18.8913C29.2768 19.0969 29.3788 19.3386 29.3788 19.6163ZM24.0001 17.333C22.985 17.333 22.2954 17.3358 21.9313 17.3413C21.5672 17.3469 21.148 17.3608 20.6735 17.383C20.0777 17.4052 19.5812 17.4941 19.184 17.6497C18.842 17.783 18.5414 17.9802 18.2821 18.2413C18.0228 18.5025 17.8269 18.8052 17.6945 19.1497C17.5401 19.5497 17.4518 20.0497 17.4297 20.6497C17.4077 21.1052 17.3939 21.5136 17.3884 21.8747C17.3829 22.2358 17.3801 22.9441 17.3801 23.9997C17.3801 25.0219 17.3829 25.7163 17.3884 26.083C17.3939 26.4497 17.4077 26.8719 17.4297 27.3497C17.4518 27.9497 17.5401 28.4497 17.6945 28.8497C17.8269 29.1941 18.0228 29.4969 18.2821 29.758C18.5414 30.0191 18.842 30.2108 19.184 30.333C19.5812 30.4997 20.0777 30.5941 20.6735 30.6163C21.1259 30.6386 21.5314 30.6525 21.89 30.658C22.2486 30.6636 22.9519 30.6663 24.0001 30.6663C25.0152 30.6663 25.7047 30.6636 26.0688 30.658C26.4329 30.6525 26.8522 30.6386 27.3266 30.6163C27.9224 30.5941 28.4189 30.5052 28.8161 30.3497C29.1582 30.2163 29.4588 30.0191 29.7181 29.758C29.9774 29.4969 30.1677 29.1941 30.2891 28.8497C30.4546 28.4497 30.5484 27.9497 30.5704 27.3497C30.5925 26.8941 30.6063 26.4858 30.6118 26.1247C30.6173 25.7636 30.6201 25.0552 30.6201 23.9997C30.6201 22.9775 30.6173 22.283 30.6118 21.9163C30.6063 21.5497 30.5925 21.1275 30.5704 20.6497C30.5484 20.0497 30.4601 19.5497 30.3056 19.1497C30.1732 18.8052 29.9774 18.5025 29.7181 18.2413C29.4588 17.9802 29.1582 17.783 28.8161 17.6497C28.4189 17.4941 27.9224 17.4052 27.3266 17.383C26.8743 17.3608 26.4688 17.3469 26.1102 17.3413C25.7516 17.3358 25.0483 17.333 24.0001 17.333ZM24.0001 15.6663C25.0814 15.6663 25.8206 15.6719 26.2178 15.683C26.5488 15.683 26.946 15.6941 27.4094 15.7163C28.1817 15.7497 28.8492 15.8775 29.4119 16.0997C29.9746 16.3219 30.4656 16.6441 30.8849 17.0663C31.3042 17.4886 31.6241 17.983 31.8448 18.5497C32.0655 19.1163 32.1923 19.7886 32.2254 20.5663C32.2475 21.0441 32.2585 21.4441 32.2585 21.7663C32.2696 22.1886 32.2751 22.9386 32.2751 24.0163C32.2751 25.0941 32.2696 25.833 32.2585 26.233C32.2585 26.5663 32.2475 26.9663 32.2254 27.433C32.1923 28.2108 32.0655 28.883 31.8448 29.4497C31.6241 30.0163 31.3042 30.5108 30.8849 30.933C30.4656 31.3552 29.9746 31.6775 29.4119 31.8997C28.8492 32.1219 28.1817 32.2497 27.4094 32.283C26.935 32.3052 26.5378 32.3163 26.2178 32.3163C25.7985 32.3275 25.0538 32.333 23.9835 32.333C22.9133 32.333 22.1796 32.3275 21.7824 32.3163C21.4514 32.3163 21.0542 32.3052 20.5908 32.283C19.8185 32.2497 19.1509 32.1219 18.5882 31.8997C18.0255 31.6775 17.5346 31.3552 17.1153 30.933C16.696 30.5108 16.3761 30.0163 16.1554 29.4497C15.9347 28.883 15.8078 28.2108 15.7747 27.433C15.7527 26.9552 15.7416 26.5552 15.7416 26.233C15.7306 25.8108 15.7251 25.0608 15.7251 23.983C15.7251 22.9052 15.7306 22.1663 15.7416 21.7663C15.7416 21.433 15.7527 21.033 15.7747 20.5663C15.8078 19.7886 15.9347 19.1163 16.1554 18.5497C16.3761 17.983 16.696 17.4886 17.1153 17.0663C17.5346 16.6441 18.0255 16.3219 18.5882 16.0997C19.1509 15.8775 19.8185 15.7497 20.5908 15.7163C21.0652 15.6941 21.4624 15.683 21.7824 15.683C22.2017 15.6719 22.9409 15.6663 24.0001 15.6663Z" fill="#1A1A1A"/>
</svg>