<svg xmlns="http://www.w3.org/2000/svg" width="48" height="48" viewBox="0 0 48 48" fill="none">
<path d="M0 20C0 8.95431 8.9543 0 20 0H28C39.0457 0 48 8.9543 48 20V28C48 39.0457 39.0457 48 28 48H20C8.95431 48 0 39.0457 0 28V20Z" fill="#E5DFD3" fill-opacity="0.3"/>
<path d="M23.8013 21.7499C24.1874 21.3388 24.6177 21.0276 25.0922 20.8165C25.5997 20.5832 26.1348 20.4665 26.6975 20.4665C27.514 20.4554 28.2725 20.6554 28.9732 21.0665C29.6738 21.4776 30.2282 22.036 30.6364 22.7415C31.0447 23.4471 31.2488 24.211 31.2488 25.0332V31.2832H29.5938V25.0332C29.5938 24.511 29.4614 24.0276 29.1966 23.5832C28.9318 23.1388 28.5787 22.7832 28.1374 22.5165C27.696 22.2499 27.2133 22.1165 26.6893 22.1165C26.1652 22.1165 25.6825 22.2499 25.2411 22.5165C24.7998 22.7832 24.4495 23.1388 24.1902 23.5832C23.9309 24.0276 23.8013 24.5165 23.8013 25.0499V31.2832H22.1463V20.8665H23.8013V21.7499ZM17.9922 19.1999C17.6502 19.1999 17.3578 19.0804 17.1151 18.8415C16.8723 18.6026 16.751 18.3082 16.751 17.9582C16.751 17.6082 16.8723 17.3138 17.1151 17.0749C17.3578 16.836 17.653 16.7138 18.0005 16.7082C18.3481 16.7026 18.6404 16.8221 18.8777 17.0665C19.1149 17.311 19.2335 17.6082 19.2335 17.9582C19.2335 18.3082 19.1149 18.6026 18.8777 18.8415C18.6404 19.0804 18.3453 19.1999 17.9922 19.1999ZM17.1647 20.8665H18.8197V31.2832H17.1647V20.8665Z" fill="#1A1A1A"/>
</svg>