<svg xmlns="http://www.w3.org/2000/svg" width="48" height="48" viewBox="0 0 48 48" fill="none">
<path d="M0 20C0 8.95431 8.9543 0 20 0H28C39.0457 0 48 8.9543 48 20V28C48 39.0457 39.0457 48 28 48H20C8.95431 48 0 39.0457 0 28V20Z" fill="#E5DFD3" fill-opacity="0.3"/>
<path d="M22.7422 26.2167L26.6976 31.5H32.4901L25.986 22.7667L31.3978 16.5H29.1967L24.9599 21.4L21.3189 16.5H15.5264L21.7326 24.85L15.9898 31.5H18.1744L22.7422 26.2167ZM27.5251 29.8333L18.8364 18.1667H20.4914L29.1801 29.8333H27.5251Z" fill="#1A1A1A"/>
</svg>