<svg width="18" height="17" viewBox="0 0 18 17" fill="none" xmlns="http://www.w3.org/2000/svg">
<path d="M14.0813 5.75537H14.7816C15.0194 5.75537 15.2396 5.81537 15.4422 5.93537C15.6448 6.05537 15.8056 6.21759 15.9245 6.42204C16.0434 6.62648 16.1028 6.8487 16.1028 7.0887V9.75537C16.1028 9.99537 16.0434 10.2176 15.9245 10.422C15.8056 10.6265 15.6448 10.7887 15.4422 10.9087C15.2396 11.0287 15.0194 11.0887 14.7816 11.0887H14.0813C13.9756 11.9598 13.6761 12.7509 13.1829 13.462C12.6896 14.1731 12.0686 14.7287 11.3199 15.1287C10.5448 15.5465 9.7168 15.7554 8.83597 15.7554V14.422C9.54944 14.422 10.2145 14.2398 10.8311 13.8754C11.43 13.5198 11.9057 13.0398 12.258 12.4354C12.6191 11.8131 12.7997 11.142 12.7997 10.422V6.42204C12.7997 5.70204 12.6191 5.03093 12.258 4.4087C11.9057 3.80426 11.43 3.32426 10.8311 2.9687C10.2145 2.60426 9.54944 2.42204 8.83597 2.42204C8.12249 2.42204 7.45746 2.60426 6.84088 2.9687C6.24191 3.32426 5.76626 3.80426 5.41393 4.4087C5.05279 5.03093 4.87222 5.70204 4.87222 6.42204V11.0887H2.89034C2.65252 11.0887 2.43231 11.0287 2.22972 10.9087C2.02713 10.7887 1.86637 10.6265 1.74746 10.422C1.62855 10.2176 1.56909 9.99537 1.56909 9.75537V7.0887C1.56909 6.8487 1.62855 6.62648 1.74746 6.42204C1.86637 6.21759 2.02713 6.05537 2.22972 5.93537C2.43231 5.81537 2.65252 5.75537 2.89034 5.75537H3.5906C3.6963 4.88426 3.99579 4.09315 4.48905 3.38204C4.98232 2.67093 5.60331 2.11537 6.35202 1.71537C7.12715 1.29759 7.95513 1.0887 8.83597 1.0887C9.7168 1.0887 10.5448 1.29759 11.3199 1.71537C12.0686 2.11537 12.6896 2.67093 13.1829 3.38204C13.6761 4.09315 13.9756 4.88426 14.0813 5.75537ZM2.89034 7.0887V9.75537H3.55097V7.0887H2.89034ZM14.121 7.0887V9.75537H14.7816V7.0887H14.121ZM6.03492 10.942L6.73518 9.8087C7.37819 10.2176 8.07845 10.422 8.83597 10.422C9.59348 10.422 10.2937 10.2176 10.9368 9.8087L11.637 10.942C11.223 11.2087 10.7782 11.4109 10.3026 11.5487C9.8269 11.6865 9.33804 11.7554 8.83597 11.7554C8.33389 11.7554 7.84503 11.6865 7.36938 11.5487C6.89373 11.4109 6.44891 11.2087 6.03492 10.942Z" fill="white" fill-opacity="0.8"/>
</svg>
