<svg width="17" height="17" viewBox="0 0 17 17" fill="none" xmlns="http://www.w3.org/2000/svg">
<path d="M13.3039 7.08838H13.9645C14.1495 7.08838 14.3058 7.15282 14.4336 7.28171C14.5613 7.4106 14.6251 7.56838 14.6251 7.75505V14.4217C14.6251 14.6084 14.5613 14.7662 14.4336 14.895C14.3058 15.0239 14.1495 15.0884 13.9645 15.0884H3.39451C3.20954 15.0884 3.05319 15.0239 2.92547 14.895C2.79775 14.7662 2.73389 14.6084 2.73389 14.4217V7.75505C2.73389 7.56838 2.79775 7.4106 2.92547 7.28171C3.05319 7.15282 3.20954 7.08838 3.39451 7.08838H4.05514V6.42171C4.05514 5.57727 4.26654 4.7906 4.68934 4.06171C5.09452 3.35949 5.64504 2.80394 6.3409 2.39505C7.06318 1.96838 7.84272 1.75505 8.67951 1.75505C9.5163 1.75505 10.2958 1.96838 11.0181 2.39505C11.714 2.80394 12.2645 3.35949 12.6697 4.06171C13.0925 4.7906 13.3039 5.57727 13.3039 6.42171V7.08838ZM4.05514 8.42171V13.755H13.3039V8.42171H4.05514ZM8.01889 9.75505H9.34014V12.4217H8.01889V9.75505ZM11.9826 7.08838V6.42171C11.9826 5.81727 11.8351 5.25949 11.54 4.74838C11.2449 4.23727 10.8442 3.83282 10.3377 3.53505C9.8312 3.23727 9.27848 3.08838 8.67951 3.08838C8.08054 3.08838 7.52782 3.23727 7.02134 3.53505C6.51486 3.83282 6.11408 4.23727 5.81901 4.74838C5.52393 5.25949 5.37639 5.81727 5.37639 6.42171V7.08838H11.9826Z" fill="white" fill-opacity="0.8"/>
</svg>
